<svg width="102" height="63" viewBox="0 0 102 63" fill="none" xmlns="http://www.w3.org/2000/svg">
<path d="M5.42133 37V25.4733L13.4013 37H16.6947V19.7733H13.4013V31.2747L5.42133 19.7733H2.15333V37H5.42133ZM38.1302 37L37.5982 34.4413H29.3396V29.6027H35.4956L34.9636 26.9933H29.3396V22.3573H36.8636L36.3569 19.7733H26.0716V37H38.1302Z" fill="#803434"/>
<path d="M65.9174 19.6157L65.943 30.6854C65.943 31.9296 66.2327 33.0544 66.8122 34.06C67.3917 35.0656 68.2183 35.8581 69.292 36.4376C70.3657 37 71.6099 37.2812 73.0245 37.2812C74.4562 37.2812 75.7174 37 76.8082 36.4376C77.899 35.8581 78.7426 35.0741 79.3391 34.0856C79.9357 33.08 80.2339 31.9466 80.2339 30.6854V19.6157H76.8849V30.4297C76.8849 31.7762 76.5355 32.8073 75.8367 33.5231C75.155 34.2219 74.2346 34.5713 73.0757 34.5713C71.9167 34.5713 70.9878 34.2304 70.289 33.5487C69.6073 32.8499 69.2664 31.8103 69.2664 30.4297V19.6157H65.9174ZM88.4649 35.8496C89.0444 36.2075 89.8625 36.5483 90.9192 36.8722C91.9929 37.179 92.8877 37.3323 93.6035 37.3323C94.967 37.3323 96.1345 37.1278 97.106 36.7188C98.0945 36.3097 98.8359 35.7473 99.3301 35.0315C99.8414 34.3157 100.097 33.489 100.097 32.5517C100.097 31.7165 99.8926 30.9922 99.4835 30.3786C99.0915 29.748 98.5973 29.2197 98.0007 28.7936C97.4042 28.3504 96.6032 27.8391 95.5976 27.2597L94.8562 26.825L94.0381 26.3649C93.1689 25.8536 92.5383 25.436 92.1463 25.1122C91.7713 24.7713 91.5839 24.3537 91.5839 23.8595C91.5839 23.28 91.8225 22.8454 92.2997 22.5557C92.794 22.2489 93.4246 22.0955 94.1915 22.0955C94.8562 22.0955 95.4698 22.1892 96.0322 22.3767C96.6117 22.5642 97.2508 22.8283 97.9496 23.1692L99.0489 20.5104C97.2423 19.6412 95.6061 19.2066 94.1404 19.2066C92.8962 19.2066 91.8225 19.4111 90.9192 19.8202C90.0329 20.2122 89.3512 20.7661 88.874 21.4819C88.3967 22.1807 88.1581 22.9732 88.1581 23.8595C88.1581 24.6946 88.3967 25.453 88.874 26.1348C89.3682 26.7995 89.9477 27.379 90.6124 27.8732C91.2941 28.3675 92.206 28.9555 93.3479 29.6372L94.1148 30.0974C94.984 30.5746 95.6232 30.9922 96.0322 31.3501C96.4583 31.691 96.6713 32.0744 96.6713 32.5005C96.6713 33.1141 96.4072 33.5828 95.8788 33.9066C95.3505 34.2304 94.575 34.3923 93.5524 34.3923C92.8877 34.3923 92.1548 34.273 91.3538 34.0344C90.5527 33.7788 89.8369 33.489 89.2063 33.1652L88.4649 35.8496Z" fill="#803434"/>
<path d="M45.4837 42L52.0412 32.183L58.3303 42H63.5456L54.9557 29.0001L64.0441 15.9235H58.8671L52.463 25.5871L45.177 15.1565L40.8437 16.8438L49.5103 28.8083L40.3835 42H45.4837Z" fill="#803434"/>
</svg>
